# xmcd CD database file
#
# Track frame offsets:
#	150
#	12500
#	23619
#	34654
#	46262
#
# Disc length: 757 seconds
#
# Revision: 0
# Processed by: cddbd v1.5.2PL0 Copyright (c) Steve Scherf et al.
# Submitted via: CDex 1.70beta2
#
DISCID=3002f305
DTITLE=Kit And The Branded Men - Mean Old City
DYEAR=2010
DGENRE=Country
TTITLE0=Everyday, Everynight
TTITLE1=I Ain't Never
TTITLE2=Mean Old City
TTITLE3=I Don't Wanna Drink Every Night
TTITLE4=Like A Fool
EXTD=YEAR: 2010
EXTT0=
EXTT1=
EXTT2=
EXTT3=
EXTT4=
PLAYORDER=
